<?xml version="1.0" encoding="UTF-8"?>
<svg id="Capa_2" data-name="Capa 2" xmlns="http://www.w3.org/2000/svg" viewBox="0 0 307.09 230.63">
  <defs>
    <style>
      .cls-1 {
        fill: #fff;
      }

      .cls-2 {
        fill: #1e1e1d;
      }

      .cls-3 {
        fill: #f4c7d0;
      }

      .cls-4 {
        fill: #ff8dae;
      }
    </style>
  </defs>
  <g id="Capa_1-2" data-name="Capa 1">
    <g>
      <path class="cls-4" d="m49.87,167.35c0,20.28,0,40.56,0,60.84q0,2.39-2.46,2.39c-3.17,0-6.35-.11-9.52.04-1.85.09-2.25-.57-2.24-2.32.05-33.47.04-66.93.04-100.4,0-2.61.01-5.23-.01-7.84,0-.46.26-1.12-.36-1.3-.47-.13-.92.26-1.27.63-2.54,2.63-5.05,5.29-7.62,7.89-5.29,5.32-10.63,10.6-15.9,15.93-.8.81-1.28.61-1.96-.09-2.61-2.66-5.25-5.31-7.92-7.91-.98-.95-.74-1.52.17-2.41,1.85-1.8,3.79-3.51,5.54-5.43,2.16-2.36,4.62-4.43,6.78-6.81,1.36-1.5,2.99-2.75,4.4-4.22,3.62-3.77,7.34-7.44,11.08-11.1,2.64-2.58,5.11-5.34,7.72-7.96,2.39-2.4,4.9-4.67,7.3-7.06,2.44-2.44,4.67-5.09,7.23-7.39,2.48-2.23,4.67-4.73,7.09-7.01,2.78-2.62,5.37-5.43,8.06-8.15,2.3-2.32,4.6-4.63,6.92-6.92,2.41-2.38,4.96-4.62,7.23-7.13,1.41-1.55,2.95-2.99,4.41-4.48,2.75-2.81,5.55-5.58,8.3-8.4,3.49-3.56,7.18-6.93,10.7-10.45,3.57-3.57,7.01-7.27,10.57-10.85,2.43-2.44,5.01-4.74,7.45-7.17,2.83-2.83,5.57-5.75,8.36-8.61,1.03-1.05,2.12-2.05,3.18-3.08.95-.92,1.7-.78,2.65.19,5.23,5.32,10.53,10.57,15.8,15.84,16.1,16.1,32.25,32.14,48.23,48.36,2.08,2.11,4.03,3.19,6.91,2.81,1.22-.16,2.5-.13,3.73,0,1.53.16,1.87-.48,1.87-1.9-.05-11.38.01-22.77-.06-34.15-.01-1.85.47-2.47,2.4-2.46,13.37.08,26.75.09,40.12,0,1.97-.01,2.35.59,2.33,2.41-.08,10.39-.04,20.78-.04,31.17,0,.62,0,1.24,0,1.87-.01,1.62.54,2.39,2.41,2.38,14.68-.08,29.36-.04,44.04-.04q2.45,0,2.45,2.38c0,3.23-.08,6.47.03,9.7.06,1.6-.34,2.13-2.04,2.12-19.72-.06-39.44-.06-59.16,0-1.6,0-1.96-.52-1.95-2.02.06-11.26,0-22.52.07-33.78,0-1.56-.44-2.02-1.99-1.98-4.17.1-8.34.1-12.5,0-1.53-.03-2.01.4-2,1.98.06,10.76.03,21.52.03,32.29,0,.5.01,1,0,1.49-.1,2.59-.23,2.71-2.79,2.72-8.15,0-16.3-.04-24.45.03-1.85.02-3.1-.42-4.44-1.9-3.63-4.01-7.58-7.72-11.4-11.55-15.83-15.83-31.69-31.65-47.48-47.53-1.23-1.23-1.89-1.39-3.2-.07-9.24,9.36-18.58,18.63-27.87,27.95-8.45,8.48-16.85,17.01-25.31,25.47-7.19,7.2-14.46,14.32-21.66,21.51-2.41,2.41-4.86,4.77-7.1,7.35-.8.92-.88,1.83-.88,2.9,0,20.4,0,40.81,0,61.21Z"/>
      <path class="cls-2" d="m187.39,107.32c.76.11.91-.48,1.25-.8,3.2-2.94,8.53-3.64,10.76,1.6.19.44.4.88.62,1.31,1.2,2.32,2.92,3.26,5.48,2.76,4.11-.81,8.04-2.22,11.9-3.83,2.1-.88,4.15-1.89,6.26-2.77,1.3-.54,2.35-1.17,2.04-2.83-.23-1.21.74-1.61,1.52-1.61.85,0,1.71.39,1.49,1.7-.61,3.59-.9,7.22-1.4,10.82-.33,2.34-.79,4.64-1.15,7.13,1.98-.43,3.44-1.77,5-2.75,4.44-2.8,9.21-5,13.69-7.7,2.92-1.76,5.82-3.53,8.71-5.32.81-.5,1.05-1.5,1.65-2.18.51-.59.77-1.48,1.92-1.49,1.47,0,1.76.4,1.03,1.66-.89,1.52-1.76,3.03-2.29,4.76-.47,1.55.12,1.93,1.42,1.82,2.4-.2,4.26-1.57,5.82-3.21,1.4-1.47,3.06-2.7,4.15-4.49.52-.85,1.64-.73,2.39-.36,1.11.55.13,1.35-.16,1.81-1.05,1.63-1.28,3.39-1.19,5.24.09,1.85,1.6,3.21,3.44,3.27,5.03.16,9.56-1.78,14.14-3.42,3.37-1.21,6.63-2.74,9.91-4.18.45-.2.85-.4,1.12.06.39.65-.2.77-.64.99-4.67,2.33-9.52,4.19-14.46,5.85-3.27,1.1-6.53,1.88-10.02,1.84-4.89-.06-6.32-1.32-6.6-6.5-1.46,1.09-2.82,2.05-4.13,3.09-1.94,1.54-4.22,1.38-6.36,1.01-1.69-.29-1.86-2-1.8-3.71-3.86,2.25-7.51,4.48-11.27,6.55-4.63,2.54-9.02,5.52-13.66,8.03-1.97,1.07-2.58,2.54-2.99,4.5-1.02,4.77-2.43,9.42-5.39,13.4-1.44,1.93-3.36,3.13-5.94,3.13-1.34,0-2.05-.62-2.57-1.67-1.5-3.07-.83-6.25,1.7-9.11,2.61-2.96,5.65-5.48,8.98-7.61.75-.48,1.19-1.16,1.31-1.89.81-5.04,1.53-10.1,2.27-15.15.03-.23-.03-.48-.06-.97-3.17,1.71-6.3,3.14-9.52,4.35-4.16,1.56-8.31,3.01-12.88,2.96-3.13-.03-5.28-1.15-6.44-4.08-.13-.34-.34-.65-.47-.99-1.27-3.31-2.99-3.8-5.73-1.44-1.59,1.37-3,2.97-4.47,4.48-.69.71-1.38,1.29-2.38.54-.99-.74-.37-1.32.04-2.14.93-1.86,1.63-3.84,2.39-5.78.33-.84.83-2.06-.02-2.49-.87-.43-2.11-.27-3.09.55-2.22,1.88-4.18,3.99-5.83,6.36-1.6,2.29-3.04,4.69-4.46,7.1-.38.65-.78.92-1.46.78-.87-.18-.48-.92-.46-1.36.17-2.85,1.41-5.43,2.31-8.49-2.93,1.26-5.56,2.51-8.27,3.53-5.42,2.04-10.8,4.25-16.78,4.14-4.82-.09-7.24-3.07-5.95-7.66.32-1.15.96-2.21,1.59-3.27.75-1.24,1.84-.79,2.56-.51.75.29.16,1.2-.16,1.74-.97,1.66-1.26,3.44-1.08,5.32.18,1.86,1.48,3.15,3.36,3.2,4.29.11,8.24-1.3,12.2-2.71,4.23-1.51,8.32-3.35,12.44-5.1.67-.29,1.05-.71,1.31-1.4.25-.67.46-1.39,1.07-1.9.76-.63,1.57-.27,2.19.01.61.28.39,1.15.17,1.68-.49,1.14-1.11,2.23-1.69,3.35.73.32.97-.24,1.21-.61,1.17-1.86,2.84-3.25,4.44-4.69.67-.6,1.48-1.25,2.55-1.32,4.17-.28,4.3,1.2,3.97,5.06-.06.68-.34,1.34-.53,2.01Zm35.23,17.73c-2.55,1.63-4.45,3.22-6.31,4.89-2.03,1.81-3.81,3.73-4.57,6.43-.55,1.93-.08,4.16,1.3,4.77,1.68.74,2.95-.19,4.01-1.41,3.55-4.09,3.98-9.32,5.58-14.67Z"/>
      <path class="cls-2" d="m96.55,137.18c.41-6.07,1.47-12.03,2.83-17.95.5-2.19,1.09-4.37,1.6-6.56.23-1.01.07-1.9-.81-2.66-1.49-1.27-2.67-2.83-3.75-4.46-1.51-2.27-1.33-3.51.53-5.48,1.82-1.93,3.87-3.65,6.15-4.9,2.29-1.25,3.3-3.01,3.93-5.4,2.37-8.91,4.79-17.8,7.63-26.58.76-2.35,1.39-4.76,1.95-7.17.32-1.4,1.13-2.02,2.37-1.6,1.26.43.84,1.62.55,2.52-1.68,5.31-3.46,10.6-5.11,15.92-1.71,5.52-3.3,11.07-4.98,16.6-.14.45-.25.92.05,1.19.45.4.72-.19,1.06-.4,6.6-3.97,13.05-8.14,19.15-12.86,4.76-3.68,9.12-7.74,12.44-12.82.56-.86.99-1.82,1.46-2.74.2-.4.39-.82.93-.63.63.23.29.69.15,1.05-1.71,4.48-4.45,8.21-7.91,11.52-7.92,7.57-17.12,13.38-26.38,19.05-2.77,1.69-2.95,4.17-3.69,6.6-.83,2.74-1.4,5.55-2.19,8.3-.81,2.84-.69,3.45,1.66,5.31,6.53,5.15,13.36,9.86,20.9,13.45,2.67,1.27,5.39,2.35,8.4,2.47.24,0,.51-.04.61.27.13.43-.23.44-.49.6-.82.49-1.62.34-2.47.12-8.03-2.01-14.89-6.35-21.62-10.89-2.31-1.56-4.41-3.43-6.64-5.12-.83-.63-1.5-1.71-2.06.51-1.56,6.2-2.91,12.43-3.89,18.73-.28,1.77-.62,3.63-.48,5.49.05.69.1,1.5-.91,1.44-.82-.05-1.09-.64-.97-1.46.08-.49.01-.99.01-1.49Zm8.37-40.34c-2.18.58-3.53,1.87-4.95,2.94-2.99,2.25-3,3.21-.79,6.34.71,1.01,1.54,1.87,2.51,2.76,1.34-3.91,2.19-7.83,3.24-12.04Z"/>
      <path class="cls-2" d="m145.06,169.18c0-4.29-.26-8.6.06-12.86.46-5.95,4.95-11.47,11.42-12.39,4.91-.7,9.12.5,12.58,4.09,2.87,2.98,3.85,6.72,3.9,10.69.1,7.71,0,15.42.05,23.14,0,1.47-.56,1.94-1.99,1.93-8.08-.04-16.17-.03-24.25.01-1.27,0-1.76-.41-1.74-1.73.06-4.29.02-8.58.02-12.87-.02,0-.03,0-.05,0Zm1.16-.76h-.05c0,4.23.04,8.45-.03,12.68-.02,1.2.15,1.71,1.56,1.7,7.58-.08,15.16-.08,22.75,0,1.38.01,1.58-.46,1.57-1.68-.06-7.52-.04-15.04-.02-22.56,0-1.54-.27-3.06-.68-4.51-1.54-5.44-6.14-9.61-13.49-9.35-5.76.21-11.3,5.65-11.56,11.43-.19,4.09-.04,8.2-.04,12.3Z"/>
      <path class="cls-2" d="m279.09,169.61c0-4.32-.38-8.68.1-12.95.55-4.87,3.04-8.84,7.69-11.04,7.79-3.69,17.51.15,19.78,9.44.32,1.3.36,2.68.37,4.03.04,7.77,0,15.55.06,23.32.01,1.45-.35,1.94-1.88,1.92-8.02-.08-16.04-.08-24.06,0-1.61.02-1.99-.53-1.96-2.04.09-4.23.03-8.46.03-12.68-.04,0-.08,0-.13,0Zm1.15-.32h0c0,4.16.04,8.32-.03,12.48-.02,1.19.27,1.57,1.52,1.56,7.58-.06,15.16-.08,22.73,0,1.42.01,1.57-.52,1.56-1.7-.05-7.76-.03-15.53-.02-23.29,0-1.36-.34-2.65-.67-3.95-1.97-7.73-11.6-11.58-18.54-7.51-4.09,2.4-6.42,5.89-6.53,10.67-.09,3.91-.02,7.83-.02,11.74Z"/>
      <path class="cls-2" d="m259.31,183.72c-4.23,0-8.46-.02-12.68.01-1.08,0-1.65-.2-1.13-1.43.13-.32.03-.74.03-1.11,0-8.33-.01-16.66-.03-24.99,0-3.99,4.11-9.99,8.17-11.48,8.13-2.99,16.98.5,19.39,9.98.28,1.12.28,2.34.28,3.51.02,7.83-.03,15.67.05,23.5.02,1.68-.52,2.1-2.14,2.06-3.98-.12-7.96-.04-11.94-.04,0,0,0,0,0-.01Zm-12.68-15.13s-.03,0-.04,0c0,4.23.05,8.46-.03,12.68-.02,1.24.36,1.52,1.55,1.51,7.59-.05,15.17-.06,22.76,0,1.26.01,1.52-.38,1.51-1.56-.05-7.71,0-15.42-.05-23.13-.01-1.38-.27-2.8-.63-4.14-1.37-5.1-6.1-9.33-12.9-9.3-6.27.02-12.08,5.89-12.15,11.81-.05,4.04-.01,8.08-.01,12.12Z"/>
      <path class="cls-2" d="m226.31,183.75c-4.04,0-8.08-.03-12.12.02-1.17.01-1.66-.29-1.65-1.56.06-8.89-.14-17.78.17-26.66.15-4.47,3.59-9.03,8.11-10.84,4.53-1.81,9.04-1.36,13.12,1.18,3.41,2.12,5.58,5.24,6,9.46.9,8.91.14,17.84.43,26.76.04,1.35-.5,1.67-1.76,1.65-4.1-.07-8.21-.02-12.31-.02h0Zm-12.86-14.61s.02,0,.03,0c0,4.04.04,8.08-.03,12.11-.02,1.21.32,1.56,1.55,1.55,7.64-.06,15.28-.06,22.92,0,1.27.01,1.53-.4,1.53-1.57-.05-7.45.04-14.91-.07-22.36-.02-1.5-.13-3.04-.51-4.55-1.45-5.64-6.78-9.79-13.19-9.64-6.53.15-12.09,6.15-12.22,12.35-.09,4.03-.02,8.07-.02,12.11Z"/>
      <path class="cls-2" d="m179.41,168.59c0-4.35-.03-8.7,0-13.05.03-4.11,4.89-10.05,8.97-11.24,4.17-1.21,8.19-.81,11.87,1.32,3.68,2.13,5.99,5.32,6.45,9.76.93,8.97.13,17.96.43,26.94.04,1.17-.47,1.43-1.57,1.42-8.08-.04-16.16-.06-24.24.03-1.7.02-2.08-.55-2.04-2.15.1-4.35.04-8.7.04-13.05.03,0,.06,0,.08,0Zm1.12,14.11c8.15.02,16.29.02,24.44.09,1.19.01,1.25-.52,1.25-1.45-.03-7.53.01-15.05-.04-22.58-.01-1.46-.24-2.94-.54-4.37-1.15-5.46-6.77-9.99-13.32-9.72-6.48.27-11.78,5.76-12.03,11.82-.37,8.63-.04,17.28,0,25.93-.12.27,0,.33.24.29Z"/>
      <path class="cls-4" d="m194.41,186.47c2.51,3.3,2.77,7.62,5.6,10.74h-3.95c.46-.76.18-3.24-.66-3.65-1-.49-2.44-.74-3.09.1-.68.89-1.83,2.17-.38,3.63h-3.02c3.06-3,3.09-7.37,5.5-10.83Zm-.27,2.47c-.65,1.15-1.07,2.22-1.39,3.48.93-.15,2.17.48,2.46-.36.33-.97-.46-2.06-1.07-3.12Z"/>
      <path class="cls-4" d="m236.59,193.88c0,2.12-1.47,3.52-3.65,3.51-2.09-.02-3.82-1.62-3.79-3.52.04-2.14,1.65-3.69,3.83-3.69,2.43,0,3.61,1.22,3.6,3.7Zm-1.6.13c.01-1.65-.95-3.03-2.22-2.94-1.43.09-1.8,1.07-1.79,2.33,0,1.68,1.07,3.21,2.26,3.11,1.41-.12,1.79-1.11,1.75-2.49Z"/>
      <path class="cls-4" d="m256.38,193.81c.01,2.2-1.31,3.54-3.53,3.59-2.27.05-3.73-1.38-3.72-3.64.01-2.05,1.54-3.54,3.64-3.56,2.44-.03,3.59,1.12,3.6,3.61Zm-1.59.58c.02-1.76-.96-3.32-2.12-3.31-1.39.02-1.9.9-1.9,2.21,0,1.68.98,3.25,2.17,3.2,1.35-.05,2.01-.82,1.86-2.1Z"/>
      <path class="cls-4" d="m182.47,190.17c.51.22.43,1.53,1.23.94.74-.54,1.11-1.52.11-2.64,1.38.25,2.66.36,2.31,1.81-.43,1.81.42,2.3,1.9,2.52.33.05.78-.05.97.65-3.65-.13-7.24-.09-10.81.73.02-.79.68-.5.79-.89.05-.05.11-.1.16-.15.94.03,1.79-.26,2.76-.61-.52-.98-2.09-.59-2.14-1.87,0,0,.09-.09.09-.09.82-.18,1.72.52,2.48-.24.05-.05.1-.1.15-.15Z"/>
      <path class="cls-4" d="m220.94,196.36c-1.33,1.25-3.34,1.4-4.64.36-1.14-.91-1.56-3.34-.81-4.62.95-1.62,3.13-2.42,4.67-1.67.89.43,1.53,1.17,1.45,2.18-.08,1.06-1.05.53-1.63.7-.95.28-1.9.66-2.81-.1.37-.63,1-.3,1.51-.41.44-.1,1.21.27,1.21-.43,0-.67-.48-1.25-1.32-1.31-1.21-.09-1.77.74-1.43,2.17-.54,1.04-.14,1.87.61,2.59.91.87,1.96.82,3.03.31.07.07.12.15.17.24Z"/>
      <path class="cls-4" d="m223.2,194.72c.74.62.99,1.49,1.85,1.69.7.16,1.32.03,1.61-.57.37-.75-.24-1.11-.85-1.36-.52-.21-1.05-.37-1.55-.62-.93-.47-1.58-1.27-1.09-2.25.71-1.41,2.05-1.65,3.52-1.3,1.11.26,1.56.86,1.11,2.01-.84.02-.95-.93-1.63-1.1-.59-.15-1.13-.28-1.44.37-.28.57.09.95.57,1.18.56.26,1.13.49,1.72.7,1.08.39.98,1.29.99,2.16.01.91-.55,1.35-1.3,1.59-1.12.35-2.26.27-3.23-.34-.73-.46-.47-1.25-.27-2.16Z"/>
      <path class="cls-4" d="m213.79,196.3c-1.82,1.38-3.85,1.43-5.1.3-1.16-1.05-1.44-2.97-.64-4.38.98-1.72,2.66-2.46,4.38-1.91.67.21,1.26.57,1.55,1.24.15.35-.18.53-.44.7-.87.59-1.2-.26-1.68-.64-.98-.78-2.1-.37-2.48.93-.77,2.61.89,4.31,3.6,3.71.16-.04.34.02.8.06Z"/>
      <path class="cls-4" d="m206.65,196.35c-1.56,1.31-3.82,1.37-5.1.21-1.16-1.05-1.32-3.41-.32-4.81,1.06-1.49,3.08-2.02,4.62-1.2.49.26,1.02.54,1.05,1.18,0,.16-.26.38-.45.51-.61.4-1.04.05-1.44-.39-.42-.46-.82-.97-1.57-.66-.77.32-1.1.92-1.2,1.73-.29,2.48,1.15,3.8,3.65,3.34.21-.04.45.06.76.11Z"/>
      <path class="cls-4" d="m257.96,194.75c.8.73,1.02,1.75,2.08,1.77.59,0,1.16-.02,1.38-.67.23-.67-.16-1.05-.74-1.28-.52-.21-1.08-.34-1.55-.63-.75-.46-1.49-1.01-1.33-2.05.14-.92.91-1.33,1.68-1.56.91-.28,1.87-.33,2.56.53.33.41.7.87.44,1.49-.78.1-.76-.72-1.21-1-.84-.52-1.72-.4-2.13.34-.43.79.58.9,1.07,1.18,1,.57,2.55.43,2.53,2.24-.01,1.65-.72,2.33-2.62,2.28-1.95-.05-2.41-.56-2.16-2.64Z"/>
      <path class="cls-4" d="m272.44,190.68c-.07.32-.26.52-.51.73-.33.28-1.16.26-.84.97.23.52.77.75,1.41.59.48-.13,1.02-.77,1.45-.03.09.16-.21.6.04.9-.55.23-1.29.58-1.7.25-1.61-1.29-3.46-.53-5.17-.8-.51-.08-.64.25-.68.65l-.06.06c-.74-.41-1.47-.82-2.39-.92,1.39-.44,2.77-.72,1.86-2.69-.12-.25.01-1.37.78-1.19.98.23-.19.75-.03,1.04.38.68-.24,1.82.7,2.1.92.27,1.79-.31,1.95-1.27.17-.97.69-.31,1.02-.36.67-.1,1.36-.12,2.04-.17.04.05.09.09.14.14Z"/>
      <path class="cls-4" d="m237.89,190.71c1.67-.7,3.29.29,4.81-.47.36-.18.86.22.85.75,0,.53-.49.86-.88.73-1.32-.44-2.23.04-2.26,1.3-.03,1.42-.99,3.35,1.39,4.19h-3.79c1.03-1.52,1.01-5.28-.12-6.51Z"/>
      <path class="cls-2" d="m145.07,98.29c-.04-1.4.34-2.73,1.91-2.79,1.2-.05,1.91.92,1.85,2.24-.06,1.42-.85,2.36-2.17,2.5-1.22.14-1.68-.79-1.6-1.95Z"/>
      <path class="cls-4" d="m276.94,194.63c.95.19,1.85.55,2.86.09.97-.45,1.09.76,1.7,1.07.8.42-.02.77-.1,1.16-.22,1.23-1.48,1.92-2.15,1.93-1.06.03-1.73-1.25-1.99-2.32-.14-.6-.33-1.17-.51-1.75.06-.06.13-.12.19-.18Z"/>
      <path class="cls-4" d="m244.44,190.31c2.54-.29,2.48-.29,2.56,2.2.05,1.57-.42,3.2.46,4.73-.91.26-1.82.16-2.74.07.33-2.38.87-4.74-.28-7.01Z"/>
      <path class="cls-2" d="m227.52,95.44c1.24-.14,1.54.51,1.57,1.55.04,1.32-.79,2.04-1.81,2.08-.92.03-1.67-.85-1.55-1.89.12-.98.49-1.96,1.78-1.73Z"/>
      <path class="cls-4" d="m278.62,191.06c-.53.98-1.31,1.71-2.44,1.72-.48,0-1.5,0-1.39-.8.15-1.08.76-1.96,2.15-1.75.66.1,1.4-.08,1.67.84Z"/>
      <path class="cls-4" d="m274.43,195.23c.66.24,1.39.25,1.69,1.02.33.85.63,1.71.57,2.64,0,.09-.28.24-.43.24-1.2.05-2.76-2.21-2.39-3.41.1-.33.22-.56.57-.49Z"/>
      <path class="cls-4" d="m177.54,192.5c-.72-.09-1.37.47-2.17.11-.78-.35-1.49-.65-1.54-1.62-.02-.43.26-.73.68-.72.89.01,1.93-.41,2.53.62.27.47.36,1.05.52,1.58l-.02.03Z"/>
      <path class="cls-4" d="m180.86,197.66c.11-.77.26-1.54.33-2.31.03-.32-.08-.61.39-.62.39,0,.72.05.82.53.25,1.25.26,2.36-1.41,2.52,0,0-.13-.12-.13-.12Z"/>
      <path class="cls-4" d="m173.65,195.44c.88.82,1.05,1.42.62,2.43-.37.87-.73,1.3-2.21,1.14,1.91-.79,1.12-2.29,1.59-3.56Z"/>
      <path class="cls-4" d="m269.78,194.69c.52.06,1.1-.12,1.53.34l-.11.11c-.33.85.25,1.66.1,2.5l-.12.14c-1.8-.38-1.42-1.81-1.46-3.04l.05-.05Z"/>
      <path class="cls-4" d="m179.75,190.66c-.55-.19-1.34-.31-1.02-1.11.21-.53.81-.9,1.52-.75.91.19,1.78.43,2.22,1.38-.05.05-.1.1-.15.15-.85-.25-1.55-.94-2.52-.83-.02-.05-.03-.1-.06-.14-.02-.02-.07-.02-.1-.03.05.06.11.12.16.18.02.36.03.72.05,1.07l-.09.09Z"/>
      <path class="cls-4" d="m184.67,194.7c1.4.44.75,1.49.55,2.26-.13.51-.86.48-1.3.3-.64-.26-.16-.72-.03-1.07.19-.5.78-.81.73-1.44l.04-.04Z"/>
      <path class="cls-4" d="m176.73,195.77c.48-.27,1.06-1.02,1.48-.2.36.69.2,1.58-.39,2.24-.1.11-.34.18-.48.14-.33-.09-.49-.4-.45-.72.05-.45.52-.9-.04-1.33l-.13-.13Z"/>
      <path class="cls-4" d="m266.79,194.32c.99.72,1.37,1.85,2.12,2.93-2.32.06-2.24-1.41-2.17-2.88,0,0,.05-.05.05-.05Z"/>
      <path class="cls-4" d="m246.66,187.54c0,.49-.15.87-.72.82-.59-.05-.85-.44-.86-1,0-.48.17-.87.73-.83.59.04.82.45.85,1.01Z"/>
      <path class="cls-4" d="m268.15,188.69c.13.17.23.29.34.42-.13.08-.29.26-.39.23-.15-.04-.26-.23-.38-.35.13-.09.26-.18.43-.3Z"/>
      <path class="cls-4" d="m271.31,197.64c.36.04.72.08,1.31.15-.65.39-1.05.38-1.43,0,0,0,.12-.14.12-.14Z"/>
      <path class="cls-4" d="m275.51,194.14c-.1.07-.19.19-.27.18-.13-.02-.25-.13-.37-.2.1-.04.21-.13.31-.12.11,0,.21.09.32.15Z"/>
      <path class="cls-4" d="m177,194.16s-.08.12-.11.12c-.1-.02-.19-.07-.29-.11.09-.04.19-.1.28-.12.03,0,.08.07.11.12Z"/>
      <path class="cls-4" d="m220.77,196.12c.2-.22.4-.44.69-.11-.17.12-.35.23-.52.35-.04-.09-.1-.17-.17-.24Z"/>
      <path class="cls-4" d="m177.57,192.47c.15.04.31.08.46.12-.04.06-.09.13-.13.19-.12-.09-.24-.19-.35-.28,0,0,.02-.03.02-.03Z"/>
      <path class="cls-4" d="m272.31,190.55c.09-.04.17-.08.26-.12-.04.09-.08.17-.12.26-.05-.04-.09-.09-.13-.13Z"/>
      <path class="cls-4" d="m184.63,194.74c-.05-.06-.1-.13-.15-.19.06.05.13.1.19.15,0,0-.04.04-.04.04Z"/>
      <path class="cls-4" d="m276.75,194.82c-.05-.11-.1-.23-.16-.34.12.05.23.1.35.16-.06.06-.13.12-.19.18Z"/>
      <path class="cls-4" d="m266.43,193.94c.12.13.24.25.36.38,0,0-.05.05-.05.05-.12-.12-.25-.24-.37-.37,0,0,.06-.06.06-.06Z"/>
      <polygon class="cls-4" points="185.51 194.16 185.6 194.13 185.59 194.22 185.51 194.16"/>
      <path class="cls-4" d="m178.97,193.3c-.06-.08-.19-.2-.18-.22.14-.2.24-.06.34.06-.05.05-.1.1-.16.15Z"/>
      <path class="cls-4" d="m271.32,195.03c.13.12.26.24.39.36-.05.05-.1.1-.15.15-.12-.13-.23-.27-.35-.4,0,0,.11-.11.11-.11Z"/>
      <path class="cls-4" d="m271.71,195.39c.11.09.28.18.07.33-.02.02-.14-.11-.22-.17.05-.05.1-.1.15-.15Z"/>
      <path class="cls-4" d="m176.85,195.9c-.09.05-.18.09-.26.14.05-.09.09-.18.14-.26,0,0,.12.13.12.13Z"/>
      <path class="cls-4" d="m180.98,197.79c-.09.12-.17.29-.33.08,0-.01.13-.13.2-.2,0,0,.13.12.13.12Z"/>
      <path class="cls-4" d="m269.73,194.74c-.05-.07-.1-.13-.15-.2.07.05.13.1.2.14,0,0-.05.05-.05.05Z"/>
      <path class="cls-1" d="m146.22,168.42c0-4.1-.15-8.21.04-12.3.27-5.78,5.8-11.22,11.56-11.43,7.35-.27,11.95,3.91,13.49,9.35.41,1.45.68,2.97.68,4.51-.01,7.52-.03,15.04.02,22.56,0,1.23-.18,1.7-1.57,1.68-7.58-.07-15.16-.08-22.75,0-1.41.02-1.58-.49-1.56-1.7.07-4.23.03-8.45.03-12.68h.05Zm3.36-3.75c0,2.92.01,5.85,0,8.77,0,1.07.22,1.94,1.35,2.33,1.51.52,3.06.56,4.44-.16,1.04-.55.36-1.78.46-2.7.19-1.77-.77-4.21.37-5.14,1.1-.89,3.44-.26,5.23-.3.06,0,.13,0,.19,0,.85-.14,1.04.28,1.02,1.05-.05,1.68-.03,3.36-.02,5.04.02,1.64.88,2.46,2.51,2.49.62.01,1.24,0,1.86,0,1.31,0,1.94-.45,1.9-1.99-.11-5.03-.04-10.07-.05-15.11,0-.99-.08-1.98-.13-2.97-.07-1.36-1.18-1.67-2.16-1.85-1.26-.24-2.61-.36-3.78.36-.19.12-.15.69-.15,1.06-.01,1.68-.16,3.38.04,5.03.24,1.97-.53,2.48-2.34,2.27-1.41-.16-3.31.43-4.15-.29-.99-.85-.34-2.8-.3-4.27.09-3.72-1.17-4.39-4.69-4.27-1.12.04-1.64.47-1.62,1.68.06,2.98.02,5.97.02,8.95Z"/>
      <path class="cls-1" d="m280.24,169.28c0-3.91-.07-7.83.02-11.74.11-4.78,2.44-8.27,6.53-10.67,6.94-4.06,16.57-.22,18.54,7.51.33,1.3.67,2.59.67,3.95,0,7.76-.02,15.53.02,23.29,0,1.19-.14,1.72-1.56,1.7-7.58-.08-15.16-.06-22.73,0-1.25.01-1.54-.37-1.52-1.56.07-4.16.03-8.32.03-12.48h0Zm4.47-4.07c0,2.8,0,5.6,0,8.4,0,1.47.74,2.3,2.17,2.43.8.07,1.62.07,2.42-.01,1.16-.11,1.85-.61,1.69-1.99-.14-1.23-.06-2.49,0-3.73.02-.47-.38-1.24.53-1.32.55-.05.99-.07,1.52.58,1.43,1.76,2.24,3.94,3.87,5.54,1.11,1.08,3.04,1.32,4.37.53,1.51-.91,1.77-1.9.76-3.34-.77-1.1-1.65-2.13-2.46-3.2-.69-.91-1.13-1.53.2-2.57,3.54-2.76,3.21-8.42.02-10.68-4.06-2.88-8.48-2.38-12.97-1.56-1.68.31-2.16,1.33-2.13,2.89.05,2.67.01,5.35.01,8.02Z"/>
      <path class="cls-1" d="m246.62,168.59c0-4.04-.04-8.08.01-12.12.08-5.93,5.88-11.79,12.15-11.81,6.8-.03,11.53,4.2,12.9,9.3.36,1.34.62,2.76.63,4.14.06,7.71,0,15.42.05,23.13,0,1.18-.25,1.57-1.51,1.56-7.59-.06-15.17-.06-22.76,0-1.19,0-1.57-.26-1.55-1.51.08-4.23.03-8.46.03-12.68.01,0,.03,0,.04,0Zm12.59-14.58c-1.42.28-3.62-.06-4.27,1.8-2.03,5.81-4.16,11.6-5.68,17.57-.35,1.39.25,2.57,1.72,2.99,2.64.77,4.23-.06,4.76-2.75.32-1.67.99-2.37,2.66-2.06.3.06.62,0,.93,0q3.06,0,4.08,2.8c.76,2.09,4.41,2.89,6.13,1.37.46-.41.37-.81.23-1.29-1.49-5.27-2.89-10.57-4.49-15.81-1.33-4.34-1.78-4.13-6.07-4.64Z"/>
      <path class="cls-1" d="m213.45,169.13c0-4.04-.07-8.07.02-12.11.13-6.2,5.68-12.21,12.22-12.35,6.41-.15,11.74,4,13.19,9.64.39,1.51.49,3.05.51,4.55.11,7.45.02,14.91.07,22.36,0,1.18-.26,1.59-1.53,1.57-7.64-.06-15.28-.06-22.92,0-1.23,0-1.57-.34-1.55-1.55.07-4.04.03-8.08.03-12.11-.01,0-.02,0-.03,0Zm22.84-.39s-.03,0-.04,0c0-1.3.02-2.61,0-3.91-.03-1.25-.63-1.97-1.95-1.97-2.18,0-4.35-.04-6.53,0-.59,0-1.08.15-1.51.8-.74,1.15-.59,2.24-.09,3.28.48,1.01,1.56.44,2.37.55.77.1,1.88-.36,1.66,1.17-.18,1.19.65,2.84-1.61,2.95-2.69.14-5.12-1.2-5.92-3.42-1.2-3.32-.52-6.51,1.79-8.12,2.66-1.85,5.56-1.42,8.16-.18,1.56.74,1.97-.14,2.36-.93.72-1.47-.06-3.26-1.54-4.05-1.03-.55-2.14-.71-3.29-.92-5.4-.99-10.18.95-13.06,5.54-2.41,3.84-1.83,9.77,1.2,13.11,3.99,4.39,9,4.43,14.18,3.17,3.48-.84,3.8-1.51,3.81-5,0-.68,0-1.37,0-2.05Z"/>
      <path class="cls-1" d="m180.29,182.41c-.03-8.64-.37-17.3,0-25.93.26-6.06,5.56-11.55,12.03-11.82,6.55-.27,12.18,4.26,13.32,9.72.3,1.43.53,2.91.54,4.37.05,7.53.01,15.05.04,22.58,0,.94-.06,1.46-1.25,1.45-8.15-.07-16.29-.07-24.44-.09-.08-.1-.16-.19-.24-.29Zm23.77-17.57c.1-7.75-4.61-11.48-11.5-11.51-6.57-.02-10.76,4.44-10.88,11.44-.12,6.67,4.43,11.66,10.43,11.67,7.37.02,12.13-4,11.96-11.6Z"/>
      <path class="cls-3" d="m180.29,182.41c.08.1.16.19.24.29-.25.05-.37-.02-.24-.29Z"/>
      <path class="cls-4" d="m179.79,189.5c-.05-.06-.11-.12-.16-.18.04.01.08.01.1.03.03.04.04.09.06.14h0Z"/>
      <path class="cls-2" d="m149.58,164.68c0-2.98.04-5.97-.02-8.95-.03-1.22.5-1.65,1.62-1.68,3.52-.12,4.77.55,4.69,4.27-.03,1.46-.69,3.42.3,4.27.84.72,2.74.12,4.15.29,1.81.21,2.58-.3,2.34-2.27-.2-1.66-.05-3.35-.04-5.03,0-.37-.05-.94.15-1.06,1.18-.72,2.52-.6,3.78-.36.97.18,2.09.49,2.16,1.85.05.99.13,1.98.13,2.97.01,5.04-.06,10.08.05,15.11.03,1.54-.59,1.98-1.9,1.99-.62,0-1.24.01-1.86,0-1.62-.03-2.49-.86-2.51-2.49-.02-1.68-.03-3.36.02-5.04.02-.78-.17-1.19-1.02-1.05-.06,0-.12,0-.19,0-1.79.04-4.13-.59-5.23.3-1.15.93-.19,3.37-.37,5.14-.1.92.58,2.15-.46,2.7-1.37.72-2.93.69-4.44.16-1.13-.4-1.36-1.26-1.35-2.33.02-2.92,0-5.85,0-8.77Z"/>
      <path class="cls-2" d="m284.71,165.21c0-2.68.04-5.35-.01-8.02-.03-1.56.45-2.59,2.13-2.89,4.49-.82,8.91-1.32,12.97,1.56,3.18,2.26,3.52,7.92-.02,10.68-1.34,1.04-.89,1.66-.2,2.57.82,1.07,1.69,2.1,2.46,3.2,1.01,1.44.76,2.43-.76,3.34-1.32.79-3.26.56-4.37-.53-1.63-1.6-2.44-3.78-3.87-5.54-.53-.65-.98-.63-1.52-.58-.91.08-.51.85-.53,1.32-.06,1.24-.14,2.5,0,3.73.16,1.38-.53,1.88-1.69,1.99-.8.08-1.62.09-2.42.01-1.44-.13-2.18-.96-2.17-2.43,0-2.8,0-5.6,0-8.4Zm5.9-3.84c.42,1.01-.99,2.98,1.75,2.78,2.6-.19,3.52-.76,3.52-2.82,0-1.93-1.15-2.74-3.57-2.83-2.49-.09-1.37,1.74-1.7,2.87Z"/>
      <path class="cls-2" d="m259.21,154.01c4.28.51,4.73.3,6.07,4.64,1.61,5.24,3,10.54,4.49,15.81.14.48.22.88-.23,1.29-1.71,1.52-5.36.72-6.13-1.37q-1.02-2.8-4.08-2.8c-.31,0-.63.05-.93,0-1.67-.31-2.34.39-2.66,2.06-.52,2.68-2.12,3.52-4.76,2.75-1.46-.43-2.07-1.61-1.72-2.99,1.52-5.98,3.65-11.77,5.68-17.57.65-1.86,2.85-1.52,4.27-1.8Zm.57,5.88c-.42.82-.62,1.23-.83,1.64-.39.75-.66,1.53-.75,2.37-.11.92-1.24,2.03-.49,2.61.66.52,2.01.16,3.05.21.8.04.92-.28.69-1.01-.55-1.77-1.03-3.56-1.67-5.82Z"/>
      <path class="cls-2" d="m236.29,168.74c0,.68,0,1.37,0,2.05-.01,3.49-.34,4.16-3.81,5-5.18,1.25-10.19,1.22-14.18-3.17-3.03-3.34-3.61-9.27-1.2-13.11,2.87-4.58,7.66-6.53,13.06-5.54,1.15.21,2.26.37,3.29.92,1.48.8,2.26,2.59,1.54,4.05-.39.79-.8,1.67-2.36.93-2.6-1.24-5.5-1.68-8.16.18-2.31,1.61-2.99,4.8-1.79,8.12.8,2.22,3.23,3.56,5.92,3.42,2.26-.12,1.44-1.77,1.61-2.95.23-1.53-.88-1.07-1.66-1.17-.81-.11-1.89.46-2.37-.55-.5-1.04-.65-2.13.09-3.28.42-.65.92-.79,1.51-.8,2.18-.03,4.35,0,6.53,0,1.32,0,1.92.72,1.95,1.97.03,1.3,0,2.61,0,3.91.01,0,.03,0,.04,0Z"/>
      <path class="cls-2" d="m204.06,164.84c.17,7.6-4.58,11.62-11.96,11.6-6-.02-10.55-5-10.43-11.67.13-7,4.31-11.46,10.88-11.44,6.9.02,11.6,3.76,11.5,11.51Zm-6.33.17c0-.44.02-.88,0-1.31-.15-2.83-1.3-4.35-3.84-5.07-1.72-.49-3.75.3-4.87,2.11-1.27,2.06-1.56,6.35.06,8.69,1.7,2.46,4.38,2.96,6.7,1.2,1.84-1.4,1.89-3.54,1.95-5.63Z"/>
      <path class="cls-1" d="m290.61,161.37c.32-1.13-.79-2.96,1.7-2.87,2.42.08,3.57.9,3.57,2.83,0,2.07-.92,2.63-3.52,2.82-2.73.2-1.33-1.77-1.75-2.78Z"/>
      <path class="cls-1" d="m259.78,159.9c.64,2.26,1.11,4.05,1.67,5.82.23.73.11,1.04-.69,1.01-1.04-.05-2.39.31-3.05-.21-.75-.59.38-1.69.49-2.61.1-.84.36-1.63.75-2.37.22-.41.42-.82.83-1.64Z"/>
      <path class="cls-1" d="m197.73,165.01c-.06,2.08-.12,4.23-1.95,5.63-2.32,1.76-5,1.25-6.7-1.2-1.63-2.35-1.33-6.63-.06-8.69,1.11-1.81,3.15-2.59,4.87-2.11,2.54.72,3.7,2.24,3.84,5.07.02.43,0,.87,0,1.31Z"/>
    </g>
  </g>
</svg>